PathFileType	4	(X/Y/Z)	C:\Users\Basilio\Documents\Thesis Gigler\squatting_fais\c3dfiles\077\SLS_front_pre2\markers_experimental.trc
DataRate	CameraRate	NumFrames	NumMarkers	Units	OrigDataRate	OrigDataStartFrame	OrigNumFrames
200.000000	200.000000	4	60	mm	200.000000	1556	2075
Frame#	Time	FHD			LBHD			RBHD			C7			T10			CLAV			LSHO			LUUPA			LMUPA			LDUPA			LLEP			LMEP			LRAD			LUL			LRFIN			RSHO			RUPA1			RMUPA			RDUPA			RLEP			RMEP			RUL			RUFIN			LASI			RASI			USACR			LSACR			RSACR			LTHI1			LTHI2			LTHI3			LTHI4			LLFC			LMFC			LTIB1			LTIB2			LTIB3			LTIB4			LLMAL			LHEE			LMT1			LMT2			LMT5			RTHI			RTHI2			RTHI3			RTHI4			RLFC			RMFC			RTIB1			RTIB2			RTIB3			RTIB4			RLMAL			RMMAL			RHEE			RMT1			RMT2			RMT5			RRAD			
		X1	Y1	Z1	X2	Y2	Z2	X3	Y3	Z3	X4	Y4	Z4	X5	Y5	Z5	X6	Y6	Z6	X7	Y7	Z7	X8	Y8	Z8	X9	Y9	Z9	X10	Y10	Z10	X11	Y11	Z11	X12	Y12	Z12	X13	Y13	Z13	X14	Y14	Z14	X15	Y15	Z15	X16	Y16	Z16	X17	Y17	Z17	X18	Y18	Z18	X19	Y19	Z19	X20	Y20	Z20	X21	Y21	Z21	X22	Y22	Z22	X23	Y23	Z23	X24	Y24	Z24	X25	Y25	Z25	X26	Y26	Z26	X27	Y27	Z27	X28	Y28	Z28	X29	Y29	Z29	X30	Y30	Z30	X31	Y31	Z31	X32	Y32	Z32	X33	Y33	Z33	X34	Y34	Z34	X35	Y35	Z35	X36	Y36	Z36	X37	Y37	Z37	X38	Y38	Z38	X39	Y39	Z39	X40	Y40	Z40	X41	Y41	Z41	X42	Y42	Z42	X43	Y43	Z43	X44	Y44	Z44	X45	Y45	Z45	X46	Y46	Z46	X47	Y47	Z47	X48	Y48	Z48	X49	Y49	Z49	X50	Y50	Z50	X51	Y51	Z51	X52	Y52	Z52	X53	Y53	Z53	X54	Y54	Z54	X55	Y55	Z55	X56	Y56	Z56	X57	Y57	Z57	X58	Y58	Z58	X59	Y59	Z59	X60	Y60	Z60	

1557	7.78	-155.1366882324219	1839.31884765625	-1083.426025390625	-296.4973144531251	1732.1474609375	-1152.258422851563	-304.0482788085938	1730.164184570313	-1006.282104492188	-351.1239013671876	1598.92822265625	-1090.12451171875	-401.2817382812501	1269.3681640625	-1061.461181640625	-191.8048706054688	1538.919799804688	-1075.395751953125	-205.9956512451172	1576.00048828125	-1246.412231445313	-29.67588233947755	1523.01171875	-1329.60498046875	-3.152865171432496	1550.734008789063	-1297.738159179688	38.22124481201173	1517.166137695313	-1324.359741210938	102.8973693847657	1524.385131835938	-1313.200317382813	103.0044250488282	1452.387573242188	-1288.565673828125	380.1647949218751	1534.961303710938	-1157.323486328125	393.5581054687501	1544.825927734375	-1235.054077148438	477.9472961425782	1558.385986328125	-1151.799438476563	-213.1558685302735	1592.063842773438	-922.7161254882815	-57.85120773315431	1559.110107421875	-815.566589355469	-32.41744995117188	1581.7431640625	-851.369323730469	12.17670249938965	1557.955444335938	-816.5283203125002	77.89819335937501	1561.394897460938	-828.8551025390627	79.81804656982423	1485.3154296875	-849.548767089844	371.1664123535157	1586.611938476563	-875.654724121094	449.519989013672	1593.127807617188	-961.5118408203127	-214.0343017578126	1053.194946289063	-1156.544189453125	-254.2330169677735	1093.6123046875	-885.2064208984377	-421.949432373047	1158.200317382813	-1049.1962890625	-427.2183532714845	1127.843994140625	-1076.838012695313	-438.7229309082032	1127.991821289063	-1022.375	-255.8255615234376	836.443542480469	-1201.0390625	-217.7680053710938	760.9713134765626	-1192.017944335938	-169.6128082275391	769.5037231445315	-1187.740844726563	-241.2246704101563	708.3869628906251	-1173.689086914063	-200.3572845458985	564.5272216796876	-1138.968994140625	-199.1892852783204	555.4049682617189	-1007.88525390625	-215.6914062500001	345.5651245117188	-1047.986450195313	-253.0549926757813	302.1245422363282	-1116.410888671875	-224.1909637451172	294.9125366210938	-1077.734008789063	-253.2099609375001	225.1125640869141	-1042.193115234375	-341.6617736816407	121.6325225830078	-1078.700073242188	-404.3884582519532	88.35485076904298	-1024.330322265625	-193.6453247070313	52.43092346191408	-1008.617065429688	-190.004867553711	56.99674606323244	-1051.111328125	-313.5705871582032	134.7953643798828	-994.2434692382815	-140.1355438232422	809.6089477539065	-818.9420166015627	-75.58920288085939	792.9448852539065	-820.9503173828127	-50.64239883422853	814.7348632812502	-827.5638427734377	-47.4181137084961	715.1918945312501	-833.0234375000002	-9.824342727661135	660.4904785156251	-833.8356933593752	21.21370697021485	663.9717407226564	-961.0303955078127	99.96656799316409	564.2938842773439	-850.4779052734377	80.28085327148439	464.1795654296876	-816.7083129882815	120.0368728637696	480.6289367675782	-837.4668579101565	144.3739166259766	443.4554443359376	-876.7266235351565	170.551254272461	252.3662872314454	-834.8510742187502	189.5127410888672	272.6726074218751	-922.5941162109377	134.2873840332032	186.9429016113282	-891.409362792969	340.4217834472657	282.1568603515626	-882.5718383789065	335.6590270996094	279.9450378417969	-843.7204589843752	331.1958312988282	250.9897766113282	-798.1340332031252	354.2551574707032	1569.849487304688	-951.3012695312502	
1558	7.785	-155.305908203125	1840.695556640625	-1083.35400390625	-296.4211425781251	1733.4345703125	-1152.121704101563	-304.0946044921876	1731.43798828125	-1006.181945800781	-351.0116882324219	1600.188598632813	-1090.063720703125	-400.8493957519532	1270.774169921875	-1061.743041992188	-191.730453491211	1540.374877929688	-1075.324462890625	-205.4292907714844	1577.346313476563	-1246.252807617188	-29.50043869018555	1524.61865234375	-1329.472534179688	-2.899860143661499	1552.477905273438	-1297.682373046875	38.28180694580079	1518.594116210938	-1324.299682617188	103.3354873657227	1526.345703125	-1313.506469726563	103.1908416748047	1454.185668945313	-1288.765869140625	380.3723449707032	1536.944702148438	-1157.150146484375	393.9131469726564	1546.965942382813	-1234.935180664063	478.221893310547	1561.0400390625	-1151.436157226563	-213.1744384765626	1593.320434570313	-922.752624511719	-57.66439056396486	1560.620727539063	-815.4942626953127	-32.23491668701173	1583.157958984375	-851.0145263671877	12.36944007873536	1559.716918945313	-815.947692871094	78.03008270263673	1563.130981445313	-828.6470336914065	80.00949096679689	1486.812255859375	-849.3497314453127	371.5617065429688	1588.396240234375	-874.8654785156252	449.5431518554689	1594.939208984375	-960.941833496094	-213.8946533203126	1054.13134765625	-1156.7158203125	-254.1438293457032	1094.930541992188	-885.402038574219	-421.687957763672	1159.62255859375	-1049.563598632813	-427.0228881835939	1129.390869140625	-1077.108154296875	-438.3565979003907	1129.461303710938	-1022.683776855469	-256.6490478515626	837.2412719726565	-1200.990600585938	-219.0919036865235	761.7482910156251	-1191.794311523438	-170.5630645751953	770.2021484375002	-1187.554077148438	-243.651596069336	709.3993530273439	-1173.547729492188	-203.1081695556641	565.4130859375001	-1138.913696289063	-201.5390930175782	556.0154418945314	-1007.520751953125	-217.7448730468751	345.3146667480469	-1048.050170898438	-253.8436584472657	302.1851501464844	-1116.403076171875	-225.3448638916016	295.7566223144532	-1077.622924804688	-253.9907684326172	225.8454284667969	-1042.272583007813	-341.0889282226563	121.4046859741211	-1078.734619140625	-404.3882141113282	88.26318359375001	-1024.495971679688	-193.6463928222657	52.50167846679689	-1008.701232910156	-190.0550537109375	56.85276794433595	-1051.107299804688	-313.8491516113282	134.76318359375	-994.4296875000002	-140.8610534667969	810.4451293945315	-818.8841552734377	-76.3906936645508	793.7611083984377	-821.0750732421877	-51.37838363647462	815.1219482421877	-827.4651489257815	-48.53645706176759	715.7750854492189	-832.9273681640627	-11.33077621459961	660.8049926757814	-833.693298339844	20.23556518554688	663.7762451171876	-960.6585693359377	98.45378875732425	564.2438964843751	-850.281921386719	78.25219726562501	464.154266357422	-816.5274658203127	118.3087921142578	480.615447998047	-837.2155761718752	142.4844360351563	443.3409423828126	-876.6340942382815	167.9837341308594	252.0394897460938	-834.3643188476565	186.8790130615235	272.2500000000001	-922.2442626953127	131.6459503173828	186.6827697753907	-891.0155029296877	337.8848571777344	281.1931457519532	-881.9634399414065	334.0052490234376	280.0253295898438	-843.227722167969	328.5272521972657	250.8230133056641	-797.5418701171877	354.6081237792969	1570.3837890625	-950.5465087890627	
1559	7.79	-155.0752716064453	1841.997192382813	-1083.052612304688	-296.3008117675782	1735.080688476563	-1151.939208984375	-304.0652465820313	1732.5673828125	-1006.012084960938	-350.6448669433594	1601.172485351563	-1089.984741210938	-400.654266357422	1271.80419921875	-1061.939453125	-191.7147064208985	1541.79638671875	-1075.326782226563	-205.4143066406251	1578.787353515625	-1246.229370117188	-29.21663856506348	1526.212646484375	-1329.273681640625	-3.127960205078126	1554.001953125	-1297.581420898438	38.23620986938477	1520.325439453125	-1324.105224609375	103.5460739135742	1528.034423828125	-1313.424438476563	103.4811630249024	1455.860717773438	-1288.400512695313	380.4362792968751	1538.833129882813	-1157.0849609375	393.4965820312501	1549.130126953125	-1234.85009765625	478.103240966797	1562.941040039063	-1151.825073242188	-212.8509979248047	1594.43115234375	-922.609802246094	-57.57563400268556	1562.072143554688	-815.324645996094	-32.31051254272462	1584.471069335938	-851.1237792968752	12.34850406646729	1560.9697265625	-815.9854125976565	78.01722717285158	1564.4384765625	-828.5483398437502	80.12351989746095	1488.400512695313	-849.2208251953127	371.5992736816407	1590.243530273438	-874.4824829101565	449.7489624023439	1597.02587890625	-960.6757812500002	-214.168441772461	1055.038818359375	-1157.146240234375	-254.1075286865235	1096.041259765625	-885.6098632812502	-421.3424072265626	1160.952514648438	-1049.8515625	-426.8260803222657	1130.550170898438	-1077.279907226563	-438.1338195800782	1130.919311523438	-1022.923217773438	-257.6478271484376	838.2563476562502	-1200.674926757813	-220.3290557861329	762.4405517578126	-1191.700073242188	-172.3032836914063	770.8493652343752	-1187.652465820313	-243.6502990722657	709.8900756835939	-1172.9921875	-205.2896728515626	566.1669921875001	-1138.5439453125	-203.7689361572266	556.5745239257814	-1007.110290527344	-218.354721069336	346.6676330566407	-1047.691650390625	-254.9401855468751	302.8365478515626	-1116.336669921875	-226.3988037109376	296.5009155273438	-1077.626220703125	-254.5607299804688	226.1171875000001	-1042.345458984375	-341.3596496582032	121.502685546875	-1078.835327148438	-404.4241943359376	88.14839172363283	-1024.629028320313	-193.7751159667969	52.49039459228517	-1008.721130371094	-190.0368804931641	56.8547706604004	-1051.150146484375	-314.1668395996094	134.8211822509766	-994.532653808594	-141.8065185546875	811.1189575195315	-818.9951171875002	-77.21557617187501	793.9971313476565	-821.1523437500002	-52.02122497558595	816.2047119140627	-827.434020996094	-49.46975326538087	716.2767333984376	-832.6924438476565	-12.58633518218994	661.2266235351564	-833.4839477539065	18.61214065551758	664.2145996093751	-960.5913696289065	96.66212463378909	564.0563964843751	-849.9607543945315	76.48999023437501	464.4286193847657	-816.121032714844	116.32958984375	480.592987060547	-836.8690185546877	140.5548858642578	443.2496948242189	-876.2563476562502	165.6024322509766	251.8939514160157	-833.7695312500002	184.8846130371094	271.8544006347657	-921.651306152344	129.045639038086	186.5774078369141	-890.3203125000002	335.3895568847657	281.2875976562501	-881.8310546875002	331.3279113769532	279.3792724609376	-842.7749633789065	326.0697937011719	250.3530426025391	-797.1160888671877	354.4473876953126	1572.611450195313	-950.2964477539065	
1560	7.795	-155.206283569336	1842.9716796875	-1083.045532226563	-296.4704895019532	1735.738647460938	-1151.977294921875	-304.1531372070313	1733.832641601563	-1006.052368164063	-350.8198242187501	1602.11328125	-1089.893798828125	-400.559539794922	1272.72265625	-1062.192138671875	-191.5463256835938	1542.802612304688	-1075.228515625	-205.6605682373047	1580.134033203125	-1246.175659179688	-29.07788085937501	1527.907958984375	-1329.40087890625	-3.807281017303468	1556.14208984375	-1297.83203125	38.76162338256837	1522.208740234375	-1323.8544921875	103.9235305786133	1529.725463867188	-1313.0107421875	103.5698013305664	1457.862426757813	-1288.525390625	380.5852355957032	1541.02001953125	-1156.9326171875	393.8722534179689	1551.351318359375	-1234.790893554688	478.1135253906251	1565.837524414063	-1151.360961914063	-212.8940734863282	1595.550903320313	-922.5839843750002	-57.59756088256837	1563.269409179688	-815.319030761719	-32.30194091796876	1585.705810546875	-850.953796386719	12.39595222473145	1562.444091796875	-815.7789306640627	78.04510498046876	1565.910522460938	-828.2850341796877	80.25082397460939	1489.714477539063	-848.9599609375002	371.6193542480469	1591.880737304688	-874.051696777344	449.8374023437501	1598.635375976563	-960.1985473632815	-214.1275482177735	1056.043701171875	-1157.231323242188	-254.0622100830079	1097.3271484375	-885.8035888671877	-421.2757263183595	1162.407836914063	-1050.179809570313	-426.5469665527345	1131.993286132813	-1077.569458007813	-438.1481018066407	1132.176391601563	-1023.18212890625	-258.6080932617188	839.2117919921877	-1200.698608398438	-222.4388122558594	763.7686157226564	-1191.931274414063	-172.8061676025391	770.9587402343752	-1186.998046875	-245.6857147216797	710.9097900390626	-1172.890258789063	-207.294906616211	566.9390869140626	-1138.191650390625	-206.0117950439454	557.1505737304689	-1006.823852539063	-219.8903503417969	347.1222839355469	-1047.498901367188	-256.0229492187501	303.4292297363282	-1116.3017578125	-227.2217102050782	296.8663940429688	-1077.353515625	-255.5476989746094	226.5621337890626	-1042.571166992188	-341.7186889648438	121.5490341186524	-1078.878173828125	-404.4852600097657	88.17722320556642	-1024.779296875	-193.7623443603516	52.55936813354494	-1008.818481445313	-190.0057373046875	56.74361419677736	-1051.199096679688	-314.3935546875001	134.9353790283203	-994.6516113281252	-142.5148468017578	812.1509399414065	-818.881774902344	-78.06289672851564	794.5373535156252	-821.1232910156252	-52.84934997558595	816.999938964844	-827.4414062500002	-50.57360076904298	717.0017700195314	-832.452087402344	-13.89034175872803	661.4791259765626	-833.2527465820315	17.26841354370118	664.4733886718751	-960.6282958984377	95.35444641113283	564.1961059570314	-849.8381347656252	74.68588256835939	464.6619567871095	-815.7984619140627	114.5936584472657	480.5441894531251	-836.6057128906252	138.820785522461	442.9689331054689	-875.6823730468752	163.223388671875	251.8180389404297	-833.2210083007815	182.2887878417969	271.7523803710938	-921.0899047851565	126.5000305175782	186.1990661621094	-889.8347778320315	332.9752502441407	280.4428100585938	-881.1789550781252	329.1320190429688	279.0115966796876	-842.3128662109377	323.8822631835938	250.1752014160157	-796.6174316406252	354.5634460449219	1574.244750976563	-949.7904052734377	
